<mxfile host="app.diagrams.net" modified="2024-04-01T08:42:27.336Z" agent="Mozilla/5.0 (Windows NT 10.0; Win64; x64) AppleWebKit/537.36 (KHTML, like Gecko) Chrome/123.0.0.0 Safari/537.36 Edg/123.0.0.0" version="24.2.0" etag="A3ndbUy5O8FzUCo25ukE" type="github">
  <diagram name="Page-1" id="4FkbiY8Hg9AoHwJCC0xS">
    <mxGraphModel>
      <root>
        <mxCell id="0" />
        <mxCell id="1" parent="0" />
      </root>
    </mxGraphModel>
  </diagram>
</mxfile>
